<svg width="41" height="41" viewBox="0 0 41 41" fill="none" xmlns="http://www.w3.org/2000/svg">
<g clip-path="url(#clip0)">
<path d="M15.1287 1.00787C13.0648 1.19799 11.6235 1.61491 9.961 2.49212C6.37682 4.3933 3.79456 7.90881 2.94751 12.0447C2.64092 13.5456 2.57139 15.2801 2.75787 16.7977C3.04233 19.1258 3.8799 21.3505 5.18525 23.245C5.96277 24.3724 6.91729 25.3897 7.98559 26.2368C10.5963 28.3015 13.8328 29.2754 17.0725 28.9685C18.8456 28.7984 20.7736 28.1113 22.3982 27.074C22.6005 26.944 22.7869 26.8372 22.8091 26.8372C22.8312 26.8372 22.8723 26.9073 22.9039 26.994C22.9955 27.2575 23.1978 27.6377 23.3653 27.8612C23.4728 28.0013 25.0026 29.4255 27.9546 32.1305C33.3309 37.0636 33.1033 36.8568 33.3182 37.0102C33.6627 37.257 34.1274 37.4605 34.5572 37.5472C34.8164 37.6006 35.5275 37.6006 35.7677 37.5472C36.6148 37.3604 37.3196 36.8935 37.8158 36.193C38.2899 35.5193 38.5017 34.7821 38.4606 33.9283C38.4195 33.1345 38.1698 32.4607 37.6894 31.857C37.446 31.5501 28.1 22.9748 27.7176 22.7047C27.5627 22.5979 27.3604 22.4745 27.2656 22.4345C27.1708 22.3945 27.0917 22.3444 27.0917 22.3244C27.0917 22.3077 27.2087 22.0876 27.3509 21.8375C28.4919 19.8429 29.1082 17.7683 29.2094 15.6036C29.3516 12.5017 28.4603 9.35638 26.7188 6.81147C24.9204 4.17983 22.2781 2.26531 19.3355 1.45481C18.4663 1.218 17.948 1.12461 16.8544 1.02121C16.0642 0.944492 15.8082 0.944492 15.1287 1.00787ZM16.7532 4.84358C19.2628 5.12709 21.6523 6.54463 23.1662 8.6426C23.5423 9.16292 23.8521 9.69325 24.1365 10.3103C24.6264 11.3643 24.8982 12.3115 25.0563 13.4956C25.1416 14.1327 25.1353 15.4201 25.0405 16.0639C24.873 17.2446 24.5727 18.2319 24.0702 19.2692C22.8438 21.7974 20.723 23.5852 18.0523 24.3323C16.5857 24.7459 14.8347 24.7393 13.3492 24.3157C10.7322 23.5719 8.60824 21.7807 7.40719 19.3092C6.86356 18.1852 6.57278 17.2046 6.38314 15.8471C6.35785 15.6536 6.34205 15.2334 6.34521 14.6797C6.34521 13.9559 6.35785 13.7324 6.4179 13.3288C6.89516 10.0335 8.72202 7.33512 11.4623 5.87088C13.1533 4.97033 14.8916 4.63011 16.7532 4.84358Z" fill="black"/>
<path d="M14.8442 5.67747C13.8675 5.78421 13.0457 6.01435 12.205 6.42127C9.411 7.7621 7.58415 10.774 7.59047 14.0126C7.59363 14.673 7.73586 15.6303 7.83068 15.6303C7.85596 15.6303 7.88441 15.607 7.89389 15.5803C7.90654 15.5536 7.93814 15.5302 7.96975 15.5302C8.00135 15.5302 8.03296 15.5069 8.0456 15.4802C8.05509 15.4535 8.08353 15.4302 8.10882 15.4302C8.13094 15.4302 8.15939 15.4068 8.17203 15.3802C8.18151 15.3535 8.20996 15.3301 8.23208 15.3301C8.25737 15.3301 8.31426 15.3001 8.35535 15.2634C8.3996 15.2267 8.57659 15.12 8.74727 15.0266C8.9211 14.9332 9.07281 14.8432 9.09178 14.8265C9.10758 14.8098 9.14235 14.7965 9.17079 14.7965C9.19608 14.7965 9.25613 14.7698 9.29722 14.7398C9.34147 14.7064 9.49634 14.6397 9.64173 14.5863C9.79028 14.5363 9.93251 14.4729 9.9578 14.4496C9.98624 14.4262 10.0526 14.3962 10.1032 14.3862C10.1948 14.3695 10.3402 14.3228 10.4983 14.2528C10.5425 14.2328 10.6215 14.2128 10.6721 14.2028C10.7258 14.1961 10.789 14.1694 10.8175 14.1427C10.8428 14.116 10.9123 14.096 10.966 14.096C11.0198 14.096 11.0703 14.0827 11.0798 14.066C11.0893 14.0493 11.1525 14.026 11.2157 14.0126C11.2821 13.9993 11.3516 13.9793 11.3674 13.9659C11.3864 13.9493 11.4907 13.9192 11.6045 13.8959C11.7183 13.8726 11.8257 13.8425 11.8415 13.8292C11.8605 13.8159 11.9079 13.7958 11.9522 13.7892C12.205 13.7325 12.6254 13.6091 12.9225 13.509C13.0457 13.4656 13.1753 13.4289 13.2069 13.4289C13.2417 13.4289 13.2954 13.4056 13.3302 13.3789C13.3618 13.3522 13.4313 13.3289 13.4788 13.3289C13.5262 13.3289 13.621 13.2989 13.6905 13.2622C13.7601 13.2255 13.8517 13.1955 13.896 13.1955C13.9402 13.1955 14.0287 13.1721 14.0951 13.1421C14.2752 13.0587 14.8189 12.8653 15.078 12.7919C15.2045 12.7552 15.3625 12.6952 15.432 12.6618C15.4984 12.6251 15.5932 12.5951 15.6406 12.5951C15.688 12.5951 15.7639 12.5651 15.8082 12.5284C15.8524 12.4917 15.9188 12.4617 15.9535 12.4617C15.9915 12.4617 16.0895 12.4317 16.1748 12.3916C16.4055 12.2882 16.4434 12.2749 16.5825 12.2315C16.69 12.1948 17.1957 11.9881 17.7456 11.7546C17.8278 11.7212 17.9922 11.6612 18.1091 11.6245C18.226 11.5845 18.3335 11.5411 18.3525 11.5244C18.3683 11.5078 18.4062 11.4944 18.4378 11.4944C18.4663 11.4944 18.539 11.4744 18.5958 11.4477C18.7191 11.3944 19.2027 11.2376 19.3165 11.2176C19.3607 11.2076 19.5156 11.1642 19.6641 11.1175C19.936 11.0341 20.448 10.9441 20.881 10.904C21.1149 10.884 21.1149 10.884 21.1591 10.764C21.295 10.4037 21.4973 9.26303 21.4973 8.8461V8.65265L21.0011 8.12899C19.759 6.82152 18.3999 6.06438 16.7405 5.75419C16.4498 5.70082 16.2001 5.68081 15.6659 5.67414C15.2835 5.66747 14.9137 5.6708 14.8442 5.67747Z" fill="black"/>
<path d="M17.1357 33.2279C16.6774 33.3179 16.3455 33.4914 16.3455 33.6381C16.3455 33.7182 16.4941 33.8583 16.6616 33.9383C16.946 34.0684 17.3285 34.1251 17.9733 34.1217C18.6528 34.1184 18.9499 34.0717 19.2723 33.9116C19.6168 33.7415 19.6263 33.5648 19.3039 33.4047C18.9784 33.2446 18.735 33.2012 18.0365 33.1879C17.5592 33.1812 17.338 33.1912 17.1357 33.2279Z" fill="black"/>
</g>
<defs>
<clipPath id="clip0">
<rect width="40.4564" height="39.0909" fill="white" transform="translate(0.19458 0.954529)"/>
</clipPath>
</defs>
</svg>
